<svg width="40" height="46" viewBox="0 0 40 46" fill="none" xmlns="http://www.w3.org/2000/svg">
<path d="M35.0188 9.83776C34.7073 9.6773 34.404 9.50139 34.1102 9.3107C33.2557 8.74767 32.4723 8.08424 31.7768 7.33472C30.0366 5.35011 29.3866 3.33675 29.1472 1.92711H29.1568C28.9569 0.757046 29.0395 0 29.052 0H21.1259V30.5482C21.1259 30.9584 21.1259 31.3637 21.1086 31.7643C21.1086 31.8141 21.1038 31.8601 21.1009 31.9138C21.1009 31.9358 21.1009 31.9588 21.0961 31.9818C21.0961 31.9876 21.0961 31.9933 21.0961 31.9991C21.0126 33.0951 20.66 34.1539 20.0696 35.0823C19.4791 36.0108 18.6688 36.7803 17.7099 37.3233C16.7105 37.89 15.5802 38.1872 14.4304 38.1858C10.7375 38.1858 7.74453 35.1844 7.74453 31.4778C7.74453 27.7711 10.7375 24.7698 14.4304 24.7698C15.1295 24.7691 15.8242 24.8788 16.4889 25.0946L16.4985 17.0508C14.4808 16.791 12.4309 16.9508 10.4783 17.5202C8.52563 18.0895 6.71256 19.0561 5.15344 20.3588C3.7873 21.5419 2.63877 22.9535 1.75955 24.5302C1.42497 25.1052 0.162592 27.4156 0.00972199 31.1654C-0.0864224 33.2937 0.55486 35.4987 0.860599 36.4101V36.4292C1.05289 36.9659 1.79801 38.7971 3.01231 40.3409C3.99148 41.5793 5.14834 42.6671 6.44562 43.5694V43.5502L6.46485 43.5694C10.302 46.1683 14.5564 45.9977 14.5564 45.9977C15.2928 45.968 17.7599 45.9977 20.5615 44.6743C23.6689 43.2072 25.438 41.0213 25.438 41.0213C26.5681 39.7153 27.4668 38.2268 28.0954 36.6199C28.8126 34.7407 29.052 32.4868 29.052 31.586V15.3795C29.1482 15.437 30.4288 16.2813 30.4288 16.2813C30.4288 16.2813 32.2738 17.46 35.1524 18.2275C37.2176 18.7738 40 18.8888 40 18.8888V11.0462C39.0251 11.1516 37.0455 10.8449 35.0188 9.83776Z" fill="white"/>
</svg>
