<?xml version="1.0" encoding="utf-8"?>
<!-- Generator: Adobe Illustrator 26.2.0, SVG Export Plug-In . SVG Version: 6.00 Build 0)  -->
<svg version="1.1" id="레이어_1" xmlns="http://www.w3.org/2000/svg" xmlns:xlink="http://www.w3.org/1999/xlink" x="0px"
	 y="0px" viewBox="0 0 37.3 32.2" style="enable-background:new 0 0 37.3 32.2;" xml:space="preserve">
<style type="text/css">
	.st0{fill:#FFFFFF;}
</style>
<g>
	<g>
		<path class="st0" d="M78.8-17.5v4.9h-2.6c-0.8,0-1.3,0.2-1.5,0.6c-0.2,0.3-0.2,0.8-0.2,1.5v2.2h4.5l-0.5,4.9h-4v14.1h-5.8V-3.4
			h-2.9v-4.9h2.9v-2.9c0-3,1-4.9,3.1-5.8c1-0.4,1.9-0.5,2.8-0.5H78.8z"/>
	</g>
</g>
<path class="st0" d="M44.8-49.5c0,0-2.9,1.6-3.7,1.4c0,0-1.9-1.9-4.5-1.9c-2.6,0-6,2-6,6.3c0,0-0.1,0.8,0.2,1.2
	c0,0-7.1,0.7-12.7-6.2c0,0-2.8,4.6,1.8,8c0,0-1.2,0.6-2.7-0.5c0,0-0.3,4.5,4.9,6c0,0-1.1,0.5-2.7,0.2c0,0,0.8,3.9,5.7,4.2
	c0,0-3.1,3.1-9,2.6c0,0,9.8,7.6,21.4-1.9c0,0,5.4-4.6,5.4-13.7c0,0,2.2-1.5,3-3c0,0-1.1,1-3.4,0.7C42.4-46.3,44.7-48,44.8-49.5z"/>
<g>
	<g>
		<g>
			<g>
				<path class="st0" d="M34.7,10.7c0-2.7-2.2-5-5-5c0,0-4.5-0.4-11-0.4c-6.5,0-11.5,0.4-11.5,0.4c-2.7,0-5,2.2-5,5
					c0,0-0.2,2.8-0.2,6.1c0,3.3,0.2,6,0.2,6c0,2.7,2.2,5,5,5c0,0,6.4,0.4,11.1,0.4c4.8,0,11.4-0.4,11.4-0.4c2.7,0,5-2.2,5-5
					c0,0,0.2-2.7,0.2-6C34.9,13.5,34.7,10.7,34.7,10.7z M15.8,21.8v-10l8.2,4.9L15.8,21.8z"/>
			</g>
		</g>
	</g>
</g>
</svg>
